<mxfile host="app.diagrams.net" modified="2024-04-18T05:44:30.225Z" agent="Mozilla/5.0 (Windows NT 10.0; Win64; x64) AppleWebKit/537.36 (KHTML, like Gecko) Chrome/123.0.0.0 Safari/537.36" version="24.0.7" etag="ZrOwLVb1dcdI9f1d69vd" type="github">
  <diagram name="Page-1" id="dZ-q07I4Dyp2pP7gRiuF">
    <mxGraphModel>
      <root>
        <mxCell id="0" />
        <mxCell id="1" parent="0" />
      </root>
    </mxGraphModel>
  </diagram>
</mxfile>
